<?xml version="1.0" encoding="UTF-8" standalone="no"?>
<!DOCTYPE svg PUBLIC "-//W3C//DTD SVG 1.1//EN" "http://www.w3.org/Graphics/SVG/1.1/DTD/svg11.dtd">
<svg width="100%" height="100%" viewBox="0 0 1455 939" version="1.1" xmlns="http://www.w3.org/2000/svg" xmlns:xlink="http://www.w3.org/1999/xlink" xml:space="preserve" xmlns:serif="http://www.serif.com/" style="fill-rule:evenodd;clip-rule:evenodd;stroke-linecap:round;stroke-linejoin:round;stroke-miterlimit:1.5;">
    <g transform="matrix(1,0,0,1,-232.5,-82)">
        <g transform="matrix(1,0,0,1,-4.5,-9)">
            <path d="M1692,137.955L1692,960.045C1692,985.96 1670.96,1007 1645.045,1007L283.955,1007C258.04,1007 237,985.96 237,960.045L237,137.955C237,112.04 258.04,91 283.955,91L1645.045,91C1670.96,91 1692,112.04 1692,137.955Z" style="fill:rgb(65,65,65);"/>
        </g>
        <g>
            <path d="M262,118L1655,118" style="fill:none;stroke:black;stroke-width:10px;"/>
            <g transform="matrix(1,0,0,1,-0,27)">
                <path d="M262,118L1655,118" style="fill:none;stroke:black;stroke-width:10px;"/>
            </g>
            <g transform="matrix(1,0,0,1,-0,54)">
                <path d="M262,118L1655,118" style="fill:none;stroke:black;stroke-width:10px;"/>
            </g>
            <g transform="matrix(1,0,0,1,-0,81)">
                <path d="M262,118L1655,118" style="fill:none;stroke:black;stroke-width:10px;"/>
            </g>
            <g transform="matrix(1,0,0,1,-0,108)">
                <path d="M262,118L1655,118" style="fill:none;stroke:black;stroke-width:10px;"/>
            </g>
            <g transform="matrix(1,0,0,1,-0,135)">
                <path d="M262,118L1655,118" style="fill:none;stroke:black;stroke-width:10px;"/>
            </g>
            <g transform="matrix(1,0,0,1,-0,162)">
                <path d="M262,118L1655,118" style="fill:none;stroke:black;stroke-width:10px;"/>
            </g>
            <g transform="matrix(1,0,0,1,-0,189)">
                <path d="M262,118L1655,118" style="fill:none;stroke:black;stroke-width:10px;"/>
            </g>
            <g transform="matrix(1,0,0,1,-0,216)">
                <path d="M262,118L1655,118" style="fill:none;stroke:black;stroke-width:10px;"/>
            </g>
            <g transform="matrix(1,0,0,1,-0,243)">
                <path d="M262,118L1655,118" style="fill:none;stroke:black;stroke-width:10px;"/>
            </g>
            <g transform="matrix(1,0,0,1,-0,270)">
                <path d="M262,118L1655,118" style="fill:none;stroke:black;stroke-width:10px;"/>
            </g>
            <g transform="matrix(1,0,0,1,-0,297)">
                <path d="M262,118L1655,118" style="fill:none;stroke:black;stroke-width:10px;"/>
            </g>
            <g transform="matrix(1,0,0,1,-0,324)">
                <path d="M262,118L1655,118" style="fill:none;stroke:black;stroke-width:10px;"/>
            </g>
            <g transform="matrix(1,0,0,1,-0,351)">
                <path d="M262,118L1655,118" style="fill:none;stroke:black;stroke-width:10px;"/>
            </g>
            <g transform="matrix(1,0,0,1,-0,378)">
                <path d="M262,118L1655,118" style="fill:none;stroke:black;stroke-width:10px;"/>
            </g>
            <g transform="matrix(1,0,0,1,-0,405)">
                <path d="M262,118L1655,118" style="fill:none;stroke:black;stroke-width:10px;"/>
            </g>
            <g transform="matrix(1,0,0,1,-0,432)">
                <path d="M262,118L1655,118" style="fill:none;stroke:black;stroke-width:10px;"/>
            </g>
            <g transform="matrix(1,0,0,1,-0,459)">
                <path d="M262,118L1655,118" style="fill:none;stroke:black;stroke-width:10px;"/>
            </g>
            <g transform="matrix(1,0,0,1,-0,486)">
                <path d="M262,118L1655,118" style="fill:none;stroke:black;stroke-width:10px;"/>
            </g>
            <g transform="matrix(1,0,0,1,-0,513)">
                <path d="M262,118L1655,118" style="fill:none;stroke:black;stroke-width:10px;"/>
            </g>
            <g transform="matrix(1,0,0,1,-0,540)">
                <path d="M262,118L1655,118" style="fill:none;stroke:black;stroke-width:10px;"/>
            </g>
            <g transform="matrix(1,0,0,1,-0,567)">
                <path d="M262,118L1655,118" style="fill:none;stroke:black;stroke-width:10px;"/>
            </g>
            <g transform="matrix(1,0,0,1,-0,594)">
                <path d="M262,118L1655,118" style="fill:none;stroke:black;stroke-width:10px;"/>
            </g>
            <g transform="matrix(1,0,0,1,-0,621)">
                <path d="M262,118L1655,118" style="fill:none;stroke:black;stroke-width:10px;"/>
            </g>
            <g transform="matrix(1,0,0,1,-0,648)">
                <path d="M262,118L1655,118" style="fill:none;stroke:black;stroke-width:10px;"/>
            </g>
            <g transform="matrix(1,0,0,1,-0,675)">
                <path d="M262,118L1655,118" style="fill:none;stroke:black;stroke-width:10px;"/>
            </g>
            <g transform="matrix(1,0,0,1,-0,702)">
                <path d="M262,118L1655,118" style="fill:none;stroke:black;stroke-width:10px;"/>
            </g>
            <g transform="matrix(1,0,0,1,-0,729)">
                <path d="M262,118L1655,118" style="fill:none;stroke:black;stroke-width:10px;"/>
            </g>
            <g transform="matrix(1,0,0,1,-0,756)">
                <path d="M262,118L1655,118" style="fill:none;stroke:black;stroke-width:10px;"/>
            </g>
            <g transform="matrix(1,0,0,1,-0,783)">
                <path d="M262,118L1655,118" style="fill:none;stroke:black;stroke-width:10px;"/>
            </g>
            <g transform="matrix(1,0,0,1,-0,810)">
                <path d="M262,118L1655,118" style="fill:none;stroke:black;stroke-width:10px;"/>
            </g>
            <g transform="matrix(1,0,0,1,-0,837)">
                <path d="M262,118L1655,118" style="fill:none;stroke:black;stroke-width:10px;"/>
            </g>
        </g>
        <g transform="matrix(1.048729,0,0,1.066986,-74.04661,-53.454545)">
            <path d="M1458,1007L514,1007L561.861,798L1410.139,798L1458,1007Z" style="fill:rgb(46,46,46);"/>
        </g>
        <g transform="matrix(1,0,0,1.033569,0,-21.075972)">
            <path d="M1600,216.399L1600,711.601C1600,731.138 1583.606,747 1563.413,747L364.587,747C344.394,747 328,731.138 328,711.601L328,216.399C328,196.862 344.394,181 364.587,181L1563.413,181C1583.606,181 1600,196.862 1600,216.399Z" style="fill:rgb(250,248,248);"/>
        </g>
        <g transform="matrix(1,0,0,1.033569,0,-21.075972)">
            <path d="M1600,633.8L1600,711.601C1600,731.138 1583.606,747 1563.413,747L364.587,747C344.394,747 328,731.138 328,711.601L328,633.8L1600,633.8Z" style="fill:rgb(202,0,32);"/>
        </g>
        <g transform="matrix(1,0,0,1,-6.5,0)">
            <rect x="799" y="430" width="335" height="156" style="fill:rgb(235,235,235);"/>
        </g>
        <g transform="matrix(1,0,0,1,-463.5,-46)">
            <clipPath id="_clip1">
                <rect x="1256" y="476" width="335" height="156"/>
            </clipPath>
            <g clip-path="url(#_clip1)">
                <circle cx="1201" cy="554" r="124"/>
            </g>
        </g>
        <g transform="matrix(1,0,0,1,-7.5,-46)">
            <clipPath id="_clip2">
                <rect x="800" y="476" width="335" height="156"/>
            </clipPath>
            <g clip-path="url(#_clip2)">
                <circle cx="1201" cy="554" r="124"/>
            </g>
        </g>
        <g transform="matrix(0.72486,0,0,0.72486,56.058349,64.801498)">
            <g transform="matrix(240.119973,0,0,240.119973,2118.145194,383)">
            </g>
            <text x="389px" y="383px" style="font-family:'CourierNewPS-BoldMT', 'Courier New', monospace;font-weight:700;font-size:240.12px;">Tape To Tape</text>
        </g>
    </g>
</svg>
